# ProBuilder 4.0.5
# https://unity3d.com/unity/features/worldbuilding/probuilder
# 28/12/2019 19:55:51

mtllib ./ClawFinishTop.mtl
o ClawFinishTop

g ClawFinishTop
v 12.80114 3.667613 0.09085565
v 12.80114 3.667613 -0.09085566
v 12.75535 4.117613 0.09085564
v 12.75535 4.117613 -0.09085567
v 12.82786 3.667613 -0.09085565
v 12.87365 4.117613 -0.09085564
v 12.82786 3.667613 0.09085566
v 12.87365 4.117613 0.09085567
v 12.77732 4.186387 0.09085565
v 12.77732 4.186387 -0.09085567
v 12.85168 4.186387 0.09085567
v 12.85168 4.186387 -0.09085565

vt 0.1009507 -0.5704486
vt -0.1009507 -0.5704486
vt 0.1009507 0.4347151
vt -0.1009507 0.4347151
vt 0.02968752 -0.5764151
vt -0.02968752 -0.5764151
vt 0.1314425 0.4235849
vt -0.1314425 0.4235849
vt -0.1009507 0.08261693
vt 0.1009507 0.08261693
vt -0.1009507 -0.08261687
vt 0.1009507 -0.08261687
vt 0.1009507 -0.02968752
vt -0.1009507 -0.02968752
vt 0.1009507 0.02968752
vt -0.1009507 0.02968752
vt 0.1009507 0.3634928
vt -0.1009507 0.3634928
vt 0.1009507 0.5239328
vt -0.1009507 0.5239328
vt 0.08261687 0.5764151
vt -0.08261693 0.5764151

vn -0.4476883 -0.04555453 -1.067372E-07
vn 5.364418E-08 0 -0.9000001
vn 0.4476883 -0.04555453 1.067372E-07
vn -5.364418E-08 0 0.9000001
vn 0 0.45 0
vn 0 -0.45 0
vn -0.428656 0.1369455 -1.021995E-07
vn 0.428656 0.1369456 1.021995E-07

g ClawFinishTop
usemtl Lit
f 3/3/1 4/4/1 2/2/1 1/1/1
f 4/7/2 6/8/2 5/6/2 2/5/2
f 6/3/3 8/4/3 7/2/3 5/1/3
f 8/7/4 3/8/4 1/6/4 7/5/4
f 11/11/5 12/12/5 10/10/5 9/9/5
f 1/15/6 2/16/6 5/14/6 7/13/6
f 9/19/7 10/20/7 4/18/7 3/17/7
f 11/21/4 9/22/4 3/8/4 8/7/4
f 10/21/2 12/22/2 6/8/2 4/7/2
f 12/19/8 11/20/8 8/18/8 6/17/8

